Coordinates
version=1
nRows=19
nColumns=24
inDegrees=yes

Units are S.I. units (second, meters, Newtons, ...)
Angles are in degrees.

endheader
time	pelvis_tilt	pelvis_list	pelvis_rotation	pelvis_tx	pelvis_ty	pelvis_tz	hip_flexion_r	hip_adduction_r	hip_rotation_r	knee_angle_r	ankle_angle_r	subtalar_angle_r	mtp_angle_r	hip_flexion_l	hip_adduction_l	hip_rotation_l	knee_angle_l	ankle_angle_l	subtalar_angle_l	mtp_angle_l	lumbar_extension	lumbar_bending	lumbar_rotation
      1.17100000	      2.93221238	      4.45117360	     -0.64616231	      0.11082964	      1.02356441	      0.25484571	     13.59839906	     -4.16009253	     -2.94498282	    -60.26402135	      6.48101158	    -19.09813969	      0.66321641	      6.60564654	      7.05049596	      1.31778971	    -12.47729759	      2.90082611	    -13.05038095	      7.77010560	    -12.45179757	     -5.96158136	      3.54790592
      1.17516667	      2.92443475	      4.35631208	     -0.60222347	      0.11595659	      1.02432720	      0.25464998	     14.00699225	     -3.98913456	     -2.86901402	    -59.43249506	      6.56830061	    -19.06704519	      0.59649814	      6.12392673	      6.98030253	      1.51840071	    -12.15946717	      2.99795428	    -13.18491588	      7.71304826	    -12.48553573	     -5.84945491	      3.34337026
      1.17933333	      2.88659691	      4.24747890	     -0.57764910	      0.12109121	      1.02501076	      0.25451043	     14.43396790	     -3.78862985	     -2.75876266	    -58.53988475	      6.67423864	    -18.99434582	      0.57375290	      5.69707083	      6.87778105	      1.59765593	    -11.88550958	      3.08975238	    -13.20448975	      7.68855823	    -12.47768906	     -5.72811409	      3.25283054
      1.18350000	      2.88162671	      4.14970969	     -0.52047100	      0.12624917	      1.02573108	      0.25433262	     14.79437153	     -3.61394870	     -2.69504853	    -57.57520291	      6.70492257	    -18.97793227	      0.53057514	      5.21009939	      6.79598112	      1.77830438	    -11.56441572	      3.19298456	    -13.29668149	      7.63627297	    -12.50941313	     -5.61084072	      3.05610568
      1.18766667	      2.83587419	      4.05324692	     -0.48340910	      0.13140927	      1.02633936	      0.25420283	     15.19174154	     -3.43128254	     -2.59802894	    -56.57032868	      6.75533897	    -18.90334957	      0.51295721	      4.78364941	      6.70295155	      1.86447731	    -11.27249379	      3.26913496	    -13.31208544	      7.60956166	    -12.49085589	     -5.50244012	      2.94564425
      1.19183333	      2.79398880	      3.94544236	     -0.42014025	      0.13658631	      1.02692848	      0.25404226	     15.55471681	     -3.24473719	     -2.53427145	    -55.49655725	      6.74977328	    -18.87929926	      0.49367620	      4.34845013	      6.60011404	      1.99528389	    -10.97471414	      3.36681314	    -13.34404660	      7.58014642	    -12.47583526	     -5.37122789	      2.79470334
      1.19600000	      2.76299537	      3.85436536	     -0.36077629	      0.14177180	      1.02749200	      0.25390209	     15.89101902	     -3.07858346	     -2.47021974	    -54.38060798	      6.71694986	    -18.87690517	      0.47452525	      3.89314685	      6.51283479	      2.12176094	    -10.65817357	      3.45231646	    -13.37755768	      7.54866714	    -12.47120451	     -5.26507663	      2.62281644
      1.20016667	      2.72387464	      3.77342223	     -0.29822053	      0.14695687	      1.02797955	      0.25376117	     16.22460350	     -2.92870389	     -2.41142621	    -53.23206582	      6.67146070	    -18.88353517	      0.45672155	      3.44678918	      6.43406288	      2.24328014	    -10.33929115	      3.53985485	    -13.40700077	      7.51899302	    -12.45896307	     -5.16675536	      2.45130396
      1.20433333	      2.67201970	      3.68992043	     -0.22431437	      0.15215927	      1.02842186	      0.25360917	     16.54920413	     -2.78138792	     -2.36817591	    -52.03316852	      6.59185806	    -18.91782985	      0.43674676	      3.01445999	      6.35237205	      2.37407689	    -10.02270229	      3.62946286	    -13.43949526	      7.48738346	    -12.42775320	     -5.06486306	      2.26616522
      1.20850000	      2.64127030	      3.62896512	     -0.15141440	      0.15735582	      1.02883467	      0.25347542	     16.84006612	     -2.66092253	     -2.32368717	    -50.80689095	      6.47199875	    -19.03571763	      0.40296018	      2.54423853	      6.29528859	      2.53943322	     -9.67349393	      3.72097284	    -13.51728305	      7.43193335	    -12.42500373	     -4.99547625	      2.01089515
      1.21266667	      2.57440621	      3.55916398	     -0.07390964	      0.16256639	      1.02914381	      0.25333484	     17.15355725	     -2.53860075	     -2.29339801	    -49.54588585	      6.36314153	    -19.09444371	      0.37103166	      2.12699130	      6.22419112	      2.66553506	     -9.35224440	      3.80703626	    -13.55166697	      7.38159875	    -12.37499233	     -4.91210291	      1.82028494
      1.21683333	      2.52493246	      3.49333718	      0.00431685	      0.16778031	      1.02944442	      0.25320541	     17.42832373	     -2.42164679	     -2.26182500	    -48.24317779	      6.22839255	    -19.18227894	      0.33536846	      1.69014476	      6.15522717	      2.78684076	     -9.02914259	      3.88925008	    -13.57721239	      7.33057147	    -12.34398598	     -4.82900355	      1.62260924
      1.22100000	      2.44140843	      3.43931337	      0.07933790	      0.17300137	      1.02963177	      0.25307189	     17.73167749	     -2.32655570	     -2.23827030	    -46.92317148	      6.12151239	    -19.19861380	      0.31332138	      1.30034683	      6.09630291	      2.86512303	     -8.72371829	      3.95916443	    -13.56704514	      7.30424316	    -12.26610990	     -4.75300424	      1.48449099
      1.22516667	      2.38848137	      3.39071565	      0.16301477	      0.17822194	      1.02982175	      0.25295669	     17.98237425	     -2.23790893	     -2.22179610	    -45.56797153	      5.93515525	    -19.38132668	      0.27172102	      0.86130571	      6.04362703	      3.01265464	     -8.38915215	      4.06662503	    -13.61206809	      7.25830400	    -12.23454058	     -4.69885482	      1.23839481
      1.22933333	      2.29976803	      3.32650177	      0.24538246	      0.18347078	      1.02992526	      0.25282170	     18.25172422	     -2.14359180	     -2.22130919	    -44.17755407	      5.80538044	    -19.40345866	      0.24642110	      0.47842993	      5.97050675	      3.09064841	     -8.08881571	      4.13356689	    -13.60282096	      7.23286388	    -12.15040958	     -4.60875149	      1.09518637
      1.23350000	      2.22782826	      3.27273030	      0.33022154	      0.18870969	      1.03000625	      0.25269952	     18.48745433	     -2.06238592	     -2.22161527	    -42.75962656	      5.63054654	    -19.51420839	      0.21546017	      0.07183347	      5.90844529	      3.19948071	     -7.77711036	      4.22574640	    -13.61143007	      7.20557758	    -12.08673778	     -4.53528558	      0.90614839
      1.23766667	      2.16325185	      3.24078490	      0.40825384	      0.19394111	      1.03002722	      0.25260509	     18.70977425	     -2.00336311	     -2.21092484	    -41.33508794	      5.43684364	    -19.69579221	      0.16548830	     -0.35368608	      5.87016115	      3.34418764	     -7.44326973	      4.33220199	    -13.65960709	      7.15941984	    -12.03905658	     -4.50340017	      0.64808488
      1.24183333	      2.06738620	      3.20367717	      0.48992885	      0.19919532	      1.02996834	      0.25250170	     18.94777127	     -1.94953560	     -2.21991972	    -39.88423070	      5.27473199	    -19.77703952	      0.11950752	     -0.73242595	      5.82382376	      3.45633132	     -7.13641470	      4.41874910	    -13.68497740	      7.11531035	    -11.95338774	     -4.45525502	      0.45730204
      1.24600000	      1.98330499	      3.16850365	      0.56782813	      0.20445706	      1.02989740	      0.25241034	     19.15258410	     -1.89974448	     -2.22764003	    -38.40039210	      5.11146356	    -19.84729542	      0.07545675	     -1.12280453	      5.77809087	      3.56395405	     -6.83285882	      4.50896829	    -13.69800285	      7.07339513	    -11.87349799	     -4.40631158	      0.27417757
